# xmcd CD database file
#
# Track frame offsets:
#	150
#	24745
#	37582
#	60005
#	68640
#	82177
#	90507
#	115910
#	134857
#	149970
#	161507
#	187032
#	211290
#	225850
#	242470
#	260880
#	284157
#	294840
#	307637
#	328662
#
# Disc length: 4661 seconds
#
# Revision: 2
# Processed by: cddbd v1.5.2PL0 Copyright (c) Steve Scherf et al.
# Submitted via: CDex 1.70beta2
#
DISCID=1f123314
DTITLE=Jazz Artists - Jazz Ever! Movie disc1
DYEAR=2004
DGENRE=Genaral Jazz
TTITLE0=Sing, Sing, Sing - Benny Goodman
TTITLE1=Singin' In The Rain - Lena Horne
TTITLE2=Smile - Kenny Dorham
TTITLE3=Around The World - Kay Starr
TTITLE4=Over The Rainbow - Shorty Rogers
TTITLE5=Love Is A Many Splendored Thnig - Mark Murphy
TTITLE6=As Time Goes By - Hugh Lawson
TTITLE7=My Favorite Things - Johnny Hartman
TTITLE8=The Sound Of Music - Howard McGhee
TTITLE9=When You Wish Upon A Star - June Christy
TTITLE10=Someday My Price Will Come - Ron Carter
TTITLE11=Moon River - Cassandra Wilson
TTITLE12=Fascination - Naoko Terai
TTITLE13=In The Street Where You Live - Dean Martin
TTITLE14=Charade - The Three Sounds
TTITLE15=The Shadow Of Your Smile - Earl Klugh
TTITLE16=Theme From Summerplace - Julie London
TTITLE17=The Days Of Wine And Roses - Joe Pass
TTITLE18=Alfi's Theme - John Patton
TTITLE19=Exodus - Grant Green
EXTD=YEAR: 2004
EXTT0=
EXTT1=
EXTT2=
EXTT3=
EXTT4=
EXTT5=
EXTT6=
EXTT7=
EXTT8=
EXTT9=
EXTT10=
EXTT11=
EXTT12=
EXTT13=
EXTT14=
EXTT15=
EXTT16=
EXTT17=
EXTT18=
EXTT19=
PLAYORDER=
